# xmcd
#
# Track frame offsets: 
#        150
#        13410
#        30733
#        42935
#        62113
#        86878
#        103397
#        114770
#        133346
#        150650
#        165010
#        177265
#        193397
#        207190
#        224409
#        239967
#        253222
#        269491
#        284607
#        297607
#        315004
#        333800
#
# Disc length: 4613 seconds
#
# Revision: 0
# Processed by: cddbd v1.5.2PL0 Copyright (c) Steve Scherf et al.
# Submitted via: ExactAudioCopy v0.99pb5
#
DISCID=5b120316
DTITLE=Houston Marchman - Naked - The Best Of
DYEAR=2008
DGENRE=Alternative Country
TTITLE0=Desperate Man
TTITLE1=Viet Nashville "No Story"
TTITLE2=Wichita Falls
TTITLE3=Hank's Angel
TTITLE4=Buses
TTITLE5=Radio Flyer
TTITLE6=Leavin' Dallas
TTITLE7=Cross Beside The Road
TTITLE8=$2 Pistol
TTITLE9=Tryin' For Home
TTITLE10=Policeman
TTITLE11=Bill Longley
TTITLE12=Midnight
TTITLE13=Suzanne
TTITLE14=Not Tonight
TTITLE15=South Texas Rain
TTITLE16=Wheels
TTITLE17=Broken Glass
TTITLE18=Damn This Road
TTITLE19=Caleb
TTITLE20=Custer
TTITLE21=Amelia Earhart feat. Uncle Dean
EXTD=
EXTT0=
EXTT1=
EXTT2=
EXTT3=
EXTT4=
EXTT5=
EXTT6=
EXTT7=
EXTT8=
EXTT9=
EXTT10=
EXTT11=
EXTT12=
EXTT13=
EXTT14=
EXTT15=
EXTT16=
EXTT17=
EXTT18=
EXTT19=
EXTT20=
EXTT21=
PLAYORDER=
